<?xml version="1.0" standalone="no"?>
<!DOCTYPE svg PUBLIC "-//W3C//DTD SVG 1.1//EN" "http://www.w3.org/Graphics/SVG/1.1/DTD/svg11.dtd" >
<svg xmlns="http://www.w3.org/2000/svg">
<metadata>Generated by IcoMoon</metadata>
<defs>
<font id="icomoon" horiz-adv-x="1024">
<font-face units-per-em="1024" ascent="960" descent="-64" />
<missing-glyph horiz-adv-x="1024" />
<glyph unicode="&#x20;" horiz-adv-x="512" d="" />
<glyph unicode="&#xe900;" glyph-name="message" d="M808.82 866.909h-600.157c-115.188-0.132-208.531-93.475-208.663-208.651v-322.294c0-0.091 0-0.199 0-0.306 0-92.838 61.618-171.284 146.189-196.672l1.454-0.375 100.771-100.771c5.393-5.403 12.849-8.746 21.085-8.746s15.692 3.343 21.085 8.746v0l92.439 92.439h425.798c115.188 0.132 208.531 93.475 208.663 208.651v319.315c-0.132 115.188-93.475 208.531-208.651 208.663h-0.013zM957.766 338.944c-0.159-82.196-66.749-148.787-148.93-148.945h-438.194c-8.236-0.007-15.69-3.35-21.085-8.75l-80.058-80.198-85.318 85.318c-3.739 3.739-8.467 6.488-13.758 7.822l-0.206 0.044c-64.058 16.282-110.685 73.442-110.685 141.493 0 0.084 0 0.167 0 0.251v-0.013 322.281c0.159 82.196 66.749 148.787 148.93 148.945h600.358c82.196-0.159 148.787-66.749 148.945-148.93v-0.015z" />
<glyph unicode="&#xe901;" glyph-name="facebook" d="M674.532 789.959h93.468v162.816c-39.589 4.605-85.457 7.232-131.939 7.232-1.475 0-2.949-0.003-4.423-0.008l0.227 0.001c-134.77 0-227.214-84.764-227.214-240.583v-143.417h-148.651v-182.044h148.651v-457.956h182.386v457.956h142.734l22.756 182.044h-165.49v125.156c0 52.622 14.222 88.633 87.495 88.633z" />
<glyph unicode="&#xe902;" glyph-name="instagram" d="M512.114 710.94c-145.092 0-262.713-117.621-262.713-262.713s117.621-262.713 262.713-262.713c145.092 0 262.713 117.621 262.713 262.713v0c0 145.092-117.621 262.713-262.713 262.713v0zM512.114 277.675c-94.257 0-170.667 76.41-170.667 170.667s76.41 170.667 170.667 170.667c94.257 0 170.667-76.41 170.667-170.667v0c0-94.257-76.41-170.667-170.667-170.667v0zM723.115 956.814c-94.208 4.38-327.566 4.153-421.604 0-1.69 0.034-3.682 0.053-5.679 0.053-81.093 0-154.819-31.544-209.576-83.031l0.159 0.148c-98.475-98.475-85.902-231.14-85.902-425.927 0-199.111-11.093-328.761 85.902-425.756 98.873-98.816 233.244-85.902 425.756-85.902 197.291 0 265.387 0 335.132 26.852 94.834 36.807 166.457 121.572 173.454 273.863 4.437 94.265 4.153 327.566 0 421.831-8.476 179.996-104.846 288.996-297.643 297.87zM872.22 87.609c-64.569-64.569-154.112-58.766-361.301-58.766-213.333 0-298.894-3.129-361.301 59.449-71.908 71.509-58.596 186.425-58.596 360.619 0 235.748-24.178 405.504 212.366 417.621 54.101 1.934 70.087 2.503 206.962 2.503l1.65-1.252c227.556 0 405.732 23.78 416.484-212.708 2.446-53.988 2.958-70.201 2.958-206.791 0-210.83 3.982-296.903-59.449-360.676zM846.677 721.351c0-33.901-27.482-61.383-61.383-61.383s-61.383 27.482-61.383 61.383c0 33.901 27.482 61.383 61.383 61.383s61.383-27.482 61.383-61.383z" />
<glyph unicode="&#xe903;" glyph-name="telegram" d="M394.473 314.74l-16.617-233.937c0.186-0.002 0.405-0.003 0.624-0.003 18.614 0 35.184 8.748 45.825 22.357l0.096 0.128 111.709 106.589 231.145-169.286c42.403-23.645 72.239-11.171 83.782 39.005l151.738 710.982c13.452 62.65-22.668 87.18-63.953 71.82l-892.276-341.364c-60.742-23.645-59.811-57.577-10.24-73.030l228.073-70.935 529.594 331.59c24.902 16.524 47.569 7.354 28.951-9.309z" />
<glyph unicode="&#xe904;" glyph-name="twitter" d="M925.231 657.967c41.846 30.195 77.024 66.588 104.978 108.237l0.959 1.517c-35.438-15.889-76.553-27.617-119.609-33.143l-2.201-0.231c43.853 26.306 76.802 66.954 92.669 115.342l0.422 1.487c-38.587-23.288-83.497-41.051-131.336-50.741l-2.714-0.459c-38.671 41.256-93.506 66.961-154.345 66.961-116.733 0-211.363-94.63-211.363-211.363 0-0.026 0-0.053 0-0.079v0.004c-0.016-0.989-0.025-2.156-0.025-3.325 0-15.899 1.704-31.401 4.941-46.331l-0.261 1.435c-176.14 8.977-331.059 92.803-434.713 220.048l-0.86 1.089c-18.159-30.556-28.892-67.366-28.892-106.684 0-73.016 37.016-137.386 93.306-175.37l0.75-0.477c-35.257 0.94-68.093 10.47-96.749 26.561l1.051-0.543v-2.327c0.149-101.947 72.103-187.046 167.989-207.438l1.39-0.248c-16.125-4.438-34.64-6.989-53.751-6.989-0.592 0-1.184 0.002-1.775 0.007l0.090-0.001c-0.956-0.018-2.084-0.028-3.215-0.028-13.013 0-25.714 1.332-37.976 3.867l1.208-0.209c28.155-84.514 105.469-144.824 197.209-147.264l0.283-0.006c-71.38-56.213-162.587-90.159-261.723-90.159-0.148 0-0.296 0-0.444 0h0.023c-0.861-0.007-1.878-0.010-2.897-0.010-16.794 0-33.346 1.035-49.597 3.046l1.945-0.196c91.091-59.481 202.618-94.863 322.409-94.863 0.659 0 1.317 0.001 1.975 0.003h-0.102c1.254-0.009 2.736-0.015 4.22-0.015 330.018 0 597.551 267.532 597.551 597.551 0 11.024-0.299 21.978-0.888 32.855l0.066-1.515z" />
<glyph unicode="&#xe905;" glyph-name="calendar" d="M892.018 880.014h-91.989v47.957c-0.743 17.098-14.786 30.679-32 30.679s-31.257-13.58-31.998-30.612l-0.002-0.067v-48.014h-448v48.014c-0.743 17.098-14.786 30.679-32 30.679s-31.257-13.58-31.998-30.612l-0.002-0.067v-48.014h-92.046c-72.853-0.097-131.885-59.129-131.982-131.973v-680.002c0.097-72.853 59.129-131.885 131.973-131.982h760.045c72.853 0.097 131.885 59.129 131.982 131.973v680.002c-0.065 72.877-59.11 131.942-131.973 132.039h-0.009zM131.982 816.014h92.046v-32.028c0.743-17.098 14.786-30.679 32-30.679s31.257 13.58 31.998 30.612l0.002 0.067v32.028h448v-32.028c0.743-17.098 14.786-30.679 32-30.679s31.257 13.58 31.998 30.612l0.002 0.067v32.028h91.989c37.703 0 68.267-30.564 68.267-68.267v0-75.776h-896.284v76.004c0.129 37.505 30.482 67.878 67.967 68.039h0.015zM892.018 0h-760.036c-37.703 0-68.267 30.564-68.267 68.267v0 539.705h896v-539.989c-0.159-37.381-30.339-67.661-67.667-67.982h-0.031z" />
<glyph unicode="&#xe906;" glyph-name="truck" d="M198.73 221.147c-27.441 0-49.686-22.245-49.686-49.686s22.245-49.686 49.686-49.686c27.441 0 49.686 22.245 49.686 49.686v0c0 27.441-22.245 49.686-49.686 49.686v0zM198.73 154.913c-9.147 0-16.562 7.415-16.562 16.562s7.415 16.562 16.562 16.562c9.147 0 16.562-7.415 16.562-16.562v0c0-9.147-7.415-16.562-16.562-16.562v0zM828 221.147c-27.441 0-49.686-22.245-49.686-49.686s22.245-49.686 49.686-49.686c27.441 0 49.686 22.245 49.686 49.686v0c0 27.441-22.245 49.686-49.686 49.686v0zM828 154.913c-9.147 0-16.562 7.415-16.562 16.562s7.415 16.562 16.562 16.562c9.147 0 16.562-7.415 16.562-16.562v0c0-9.147-7.415-16.562-16.562-16.562v0zM1024.074 445.388l-149.029 231.825c-2.994 4.6-8.11 7.598-13.927 7.598-0.003 0-0.006 0-0.009 0h-198.715v91.091c-0.042 31.994-25.972 57.919-57.964 57.952h-546.478c-31.989-0.042-57.91-25.963-57.952-57.948v-604.431c0-9.147 7.415-16.562 16.562-16.562v0h67.436c8.379-56.499 56.543-99.358 114.718-99.358s106.339 42.859 114.64 98.724l0.077 0.634h399.835c8.379-56.499 56.543-99.358 114.718-99.358s106.339 42.859 114.64 98.724l0.077 0.634h67.436c9.147 0 16.562 7.415 16.562 16.562v0 264.949c-0.011 3.309-0.989 6.387-2.666 8.969l0.039-0.064zM198.715 88.665c-45.727 0-82.796 37.069-82.796 82.796s37.069 82.796 82.796 82.796c45.727 0 82.796-37.069 82.796-82.796v0c0-45.727-37.069-82.796-82.796-82.796v0zM629.27 188.097h-315.837c-8.379 56.499-56.543 99.358-114.718 99.358s-106.339-42.859-114.64-98.724l-0.077-0.634h-50.874v165.517h596.116zM629.27 386.812h-596.146v389.090c0.008 13.717 11.126 24.835 24.842 24.843h546.461c13.704-0.025 24.805-11.136 24.813-24.842v-0.001zM884.009 602.016l95.826-149.044h-234.644v149.044zM828 88.665c-45.727 0-82.796 37.069-82.796 82.796s37.069 82.796 82.796 82.796c45.727 0 82.796-37.069 82.796-82.796v0c0-45.727-37.069-82.796-82.796-82.796v0zM993.592 320.505h-33.124c-9.147 0-16.562 7.415-16.562 16.562s7.415 16.562 16.562 16.562h33.124zM993.592 386.738h-33.124c-27.457 0-49.716-22.259-49.716-49.716s22.259-49.716 49.716-49.716v0h33.124v-99.432h-50.888c-8.379 56.499-56.543 99.358-114.718 99.358s-106.339-42.859-114.64-98.724l-0.077-0.634h-50.874v463.827h189.677l10.656-16.562h-134.055c-9.147 0-16.562-7.415-16.562-16.562v0-182.153c0-0.018 0-0.038 0-0.059 0-9.147 7.415-16.562 16.562-16.562 0 0 0 0 0 0h264.919zM778.299 386.738h-49.686c-9.147 0-16.562-7.415-16.562-16.562s7.415-16.562 16.562-16.562h49.686c9.147 0 16.562 7.415 16.562 16.562s-7.415 16.562-16.562 16.562v0zM430.555 287.38h132.482c9.147 0 16.562 7.415 16.562 16.562s-7.415 16.562-16.562 16.562h-132.482c-9.147 0-16.562-7.415-16.562-16.562s7.415-16.562 16.562-16.562v0zM563.022 270.818h-49.686c-9.147 0-16.562-7.415-16.562-16.562s7.415-16.562 16.562-16.562h49.686c9.147 0 16.562 7.415 16.562 16.562s-7.415 16.562-16.562 16.562v0z" />
<glyph unicode="&#xe907;" glyph-name="headphones" d="M1024 448.028c0 0.031 0 0.068 0 0.105 0 282.754-229.218 511.972-511.972 511.972s-511.972-229.218-511.972-511.972c0-64.811 12.043-126.81 34.013-183.88l-1.185 3.502c-20.299-21.838-32.755-51.207-32.755-83.485 0-19.263 4.436-37.489 12.343-53.714l-0.32 0.728 60.29-125.628c20.185-41.537 62.057-69.661 110.498-69.661 19.317 0 37.59 4.472 53.839 12.438l-0.722-0.32 12.75 6.113c1.161 0.579 2.161 1.245 3.068 2.018l-0.021-0.018c5.579-1.898 12.006-2.994 18.689-2.994 33.039 0 59.823 26.784 59.823 59.823 0 9.467-2.199 18.421-6.114 26.377l0.156-0.351-137.967 287.412c-9.858 20.295-30.314 34.036-53.98 34.036-14.612 0-28.001-5.239-38.39-13.941l0.093 0.076c-7.654 30.336-12.047 65.162-12.047 101.014 0 130.387 58.097 247.204 149.816 325.979l0.572 0.48c5.804-3.115 12.688-4.975 19.999-5.047h0.023c9.785 0.022 18.829 3.172 26.191 8.503l-0.131-0.090c64.881 46.579 145.901 74.488 233.44 74.488s168.56-27.908 234.65-75.313l-1.21 0.825c7.178-5.224 16.169-8.357 25.892-8.357 7.393 0 14.363 1.812 20.49 5.015l-0.244-0.116c92.283-79.25 150.375-196.060 150.375-326.439 0-35.832-4.388-70.639-12.655-103.913l0.621 2.955c-10.296 8.626-23.684 13.865-38.297 13.865-23.666 0-44.122-13.742-53.824-33.681l-0.156-0.355-138.060-287.393c-3.818-7.649-6.053-16.663-6.053-26.199 0-32.988 26.742-59.729 59.729-59.729 6.767 0 13.271 1.125 19.335 3.199l-0.42-0.125c0.886-0.745 1.887-1.405 2.959-1.942l0.088-0.040 12.75-6.132c15.507-7.607 33.749-12.056 53.029-12.056 48.449 0 90.337 28.090 110.266 68.873l0.32 0.725 60.29 125.703c7.587 15.497 12.023 33.724 12.023 52.986 0 32.278-12.457 61.647-32.826 83.561l0.070-0.076c20.784 53.293 32.828 114.988 32.828 179.496 0 0.266 0 0.533-0.001 0.799v-0.041zM152.418-28.461c-23.41 8.297-42.038 25.126-52.498 46.658l-0.239 0.546-60.29 125.703c-5.72 11.677-9.065 25.412-9.065 39.928 0 36.161 20.758 67.473 51.008 82.672l0.532 0.242 140.21-292.31c-11.437-5.505-24.866-8.721-39.047-8.721-11 0-21.548 1.935-31.322 5.484l0.639-0.203zM119.496 327.335c3.742 1.85 8.147 2.934 12.805 2.935h0.001c0.007 0 0.015 0 0.024 0 11.732 0 21.878-6.788 26.726-16.65l0.078-0.175 138.023-287.43c1.845-3.758 2.924-8.179 2.924-12.853 0-16.41-13.303-29.713-29.713-29.713-11.737 0-21.884 6.805-26.712 16.685l-0.078 0.176-137.929 287.393c-1.849 3.76-2.93 8.184-2.93 12.861 0 11.731 6.805 21.873 16.682 26.694l0.176 0.077zM51.878 448.028c0-0.033 0-0.072 0-0.111 0-49.365 7.781-96.912 22.183-141.482l-0.909 3.253c-0.447-2.739-0.703-5.897-0.703-9.114 0-1.444 0.051-2.876 0.153-4.294l-0.011 0.19-2.935-1.402c-4.832-2.347-8.812-4.593-12.647-7.045l0.495 0.296c-17.258 47.554-27.237 102.442-27.237 159.661 0 144.106 63.296 273.429 163.603 361.682l0.535 0.462 15.161-15.76c-96.842-84.474-157.69-208.091-157.69-345.92 0-0.147 0-0.294 0-0.441v0.024zM762.985 802.142c-69.751 50.087-156.859 80.098-250.976 80.098s-181.224-30.010-252.275-80.984l1.299 0.886c-2.332-1.738-5.27-2.783-8.452-2.783-4.020 0-7.651 1.668-10.239 4.349l-0.004 0.004-24.733 25.743c80.498 62.573 183.001 100.317 294.319 100.317s213.821-37.744 295.41-101.131l-1.090 0.815-24.621-25.724c-2.592-2.692-6.227-4.364-10.253-4.364-3.177 0-6.112 1.042-8.479 2.802l0.038-0.027zM814.452 794.272l15.143 15.76c100.859-88.717 164.167-218.050 164.167-362.169 0-57.21-9.976-112.090-28.283-162.995l1.055 3.359c-3.34 2.156-7.319 4.402-11.428 6.426l-0.724 0.322-2.935 1.402c0.091 1.228 0.142 2.661 0.142 4.106 0 3.216-0.256 6.372-0.748 9.45l0.045-0.339c13.479 41.288 21.252 88.802 21.252 138.131 0 138.023-60.85 261.833-157.186 346.068l-0.537 0.46zM740.776-13.674c-10.045 4.918-16.839 15.064-16.839 26.798 0 4.666 1.074 9.081 2.989 13.011l-0.078-0.176 137.985 287.412c4.856 10.184 15.069 17.097 26.897 17.097 16.406 0 29.706-13.3 29.706-29.706 0-4.768-1.124-9.274-3.12-13.268l0.078 0.172-0.243-0.542-137.724-286.87c-4.899-10.053-15.041-16.858-26.772-16.858-4.677 0-9.101 1.081-13.036 3.008l0.175-0.077zM984.629 144.464l-60.29-125.722c-15.251-31.27-46.805-52.433-83.302-52.433-14.184 0-27.622 3.196-39.632 8.908l0.559-0.239 140.21 292.31c30.799-15.435 51.57-46.756 51.57-82.929 0-14.51-3.342-28.24-9.299-40.461l0.241 0.548z" />
<glyph unicode="&#xe908;" glyph-name="laptop" d="M900.123 908.142h-776.267c-8.357 0-15.131-6.774-15.131-15.131v0-481.748c0-8.357 6.774-15.131 15.131-15.131v0h776.267c8.357 0 15.131 6.774 15.131 15.131v0 481.748c0 8.357-6.774 15.131-15.131 15.131v0zM884.992 426.394h-746.025v451.506h746.046zM1023.771 31.485l-56.659 329.23v584.154c0 8.357-6.774 15.131-15.131 15.131v0h-879.983c-8.357 0-15.131-6.774-15.131-15.131v0-584.050l-56.659-329.334c-0.132-0.748-0.208-1.61-0.208-2.49 0-0.038 0-0.076 0-0.114v0.006-77.776c0-8.357 6.774-15.131 15.131-15.131v0h993.737c8.357 0 15.131 6.774 15.131 15.131v0 77.797c-0.002 0.912-0.085 1.803-0.242 2.669l0.014-0.091zM84.76 344.316h854.48l51.692-300.297h-957.863zM87.129 929.758h849.741v-555.201h-849.741zM30.242-33.758v47.535h963.517v-47.535zM187.249 258.599h51.858c0.167-0.007 0.364-0.010 0.561-0.010 8.357 0 15.131 6.774 15.131 15.131s-6.774 15.131-15.131 15.131c-0.197 0-0.394-0.004-0.589-0.011l0.028 0.001h-51.858c-8.112-0.31-14.571-6.961-14.571-15.121s6.459-14.811 14.542-15.12l0.028-0.001zM306.782 258.599h51.858c0.167-0.007 0.364-0.010 0.561-0.010 8.357 0 15.131 6.774 15.131 15.131s-6.774 15.131-15.131 15.131c-0.197 0-0.394-0.004-0.589-0.011l0.028 0.001h-51.858c-0.167 0.007-0.364 0.010-0.561 0.010-8.357 0-15.131-6.774-15.131-15.131s6.774-15.131 15.131-15.131c0.197 0 0.394 0.004 0.589 0.011l-0.028-0.001zM426.315 258.599h51.858c0.167-0.007 0.364-0.010 0.561-0.010 8.357 0 15.131 6.774 15.131 15.131s-6.774 15.131-15.131 15.131c-0.197 0-0.394-0.004-0.589-0.011l0.028 0.001h-51.858c-0.167 0.007-0.364 0.010-0.561 0.010-8.357 0-15.131-6.774-15.131-15.131s6.774-15.131 15.131-15.131c0.197 0 0.394 0.004 0.589 0.011l-0.028-0.001zM545.848 258.599h51.858c0.167-0.007 0.364-0.010 0.561-0.010 8.357 0 15.131 6.774 15.131 15.131s-6.774 15.131-15.131 15.131c-0.197 0-0.394-0.004-0.589-0.011l0.028 0.001h-51.858c-8.112-0.31-14.571-6.961-14.571-15.121s6.459-14.811 14.542-15.12l0.028-0.001zM665.381 258.599h51.858c0.167-0.007 0.364-0.010 0.561-0.010 8.357 0 15.131 6.774 15.131 15.131s-6.774 15.131-15.131 15.131c-0.197 0-0.394-0.004-0.589-0.011l0.028 0.001h-51.858c-8.112-0.31-14.571-6.961-14.571-15.121s6.459-14.811 14.542-15.12l0.028-0.001zM784.934 258.599h51.858c0.167-0.007 0.364-0.010 0.561-0.010 8.357 0 15.131 6.774 15.131 15.131s-6.774 15.131-15.131 15.131c-0.197 0-0.394-0.004-0.589-0.011l0.028 0.001h-51.858c-8.112-0.31-14.571-6.961-14.571-15.121s6.459-14.811 14.542-15.12l0.028-0.001zM127.473 179.036h51.858c8.112 0.31 14.571 6.961 14.571 15.121s-6.459 14.811-14.542 15.12l-0.028 0.001h-51.858c-8.112-0.31-14.571-6.961-14.571-15.121s6.459-14.811 14.542-15.12l0.028-0.001zM298.842 209.277h-51.837c-8.112-0.31-14.571-6.961-14.571-15.121s6.459-14.811 14.542-15.12l0.028-0.001h51.858c0.167-0.007 0.364-0.010 0.561-0.010 8.357 0 15.131 6.774 15.131 15.131s-6.774 15.131-15.131 15.131c-0.197 0-0.394-0.004-0.589-0.011l0.028 0.001zM366.538 179.036h51.858c8.112 0.31 14.571 6.961 14.571 15.121s-6.459 14.811-14.542 15.12l-0.028 0.001h-51.858c-8.112-0.31-14.571-6.961-14.571-15.121s6.459-14.811 14.542-15.12l0.028-0.001zM537.929 179.036c0.167-0.007 0.364-0.010 0.561-0.010 8.357 0 15.131 6.774 15.131 15.131s-6.774 15.131-15.131 15.131c-0.197 0-0.394-0.004-0.589-0.011l0.028 0.001h-51.837c-8.112-0.31-14.571-6.961-14.571-15.121s6.459-14.811 14.542-15.12l0.028-0.001zM657.462 209.277h-51.837c-8.112-0.31-14.571-6.961-14.571-15.121s6.459-14.811 14.542-15.12l0.028-0.001h51.858c8.112 0.31 14.571 6.961 14.571 15.121s-6.459 14.811-14.542 15.12l-0.028 0.001zM776.995 209.277h-51.837c-0.167 0.007-0.364 0.010-0.561 0.010-8.357 0-15.131-6.774-15.131-15.131s6.774-15.131 15.131-15.131c0.197 0 0.394 0.004 0.589 0.011l-0.028-0.001h51.858c8.112 0.31 14.571 6.961 14.571 15.121s-6.459 14.811-14.542 15.12l-0.028 0.001zM829.559 194.146c0-8.357 6.774-15.131 15.131-15.131v0h51.858c0.167-0.007 0.364-0.010 0.561-0.010 8.357 0 15.131 6.774 15.131 15.131s-6.774 15.131-15.131 15.131c-0.197 0-0.394-0.004-0.589-0.011l0.028 0.001h-51.858c0 0 0 0 0 0-8.349 0-15.119-6.763-15.131-15.109v-0.001zM127.473 99.492h51.858c8.112 0.31 14.571 6.961 14.571 15.121s-6.459 14.811-14.542 15.12l-0.028 0.001h-51.858c-0.167 0.007-0.364 0.010-0.561 0.010-8.357 0-15.131-6.774-15.131-15.131s6.774-15.131 15.131-15.131c0.197 0 0.394 0.004 0.589 0.011l-0.028-0.001zM298.842 129.734h-51.837c-8.112-0.31-14.571-6.961-14.571-15.121s6.459-14.811 14.542-15.12l0.028-0.001h51.858c0.167-0.007 0.364-0.010 0.561-0.010 8.357 0 15.131 6.774 15.131 15.131s-6.774 15.131-15.131 15.131c-0.197 0-0.394-0.004-0.589-0.011l0.028 0.001zM657.441 129.734h-290.986c-0.167 0.007-0.364 0.010-0.561 0.010-8.357 0-15.131-6.774-15.131-15.131s6.774-15.131 15.131-15.131c0.197 0 0.394 0.004 0.589 0.011l-0.028-0.001h290.986c0.167-0.007 0.364-0.010 0.561-0.010 8.357 0 15.131 6.774 15.131 15.131s-6.774 15.131-15.131 15.131c-0.197 0-0.394-0.004-0.589-0.011l0.028 0.001zM776.995 129.734h-51.837c-0.167 0.007-0.364 0.010-0.561 0.010-8.357 0-15.131-6.774-15.131-15.131s6.774-15.131 15.131-15.131c0.197 0 0.394 0.004 0.589 0.011l-0.028-0.001h51.858c0.167-0.007 0.364-0.010 0.561-0.010 8.357 0 15.131 6.774 15.131 15.131s-6.774 15.131-15.131 15.131c-0.197 0-0.394-0.004-0.589-0.011l0.028 0.001zM896.527 129.734h-51.858c-8.112-0.31-14.571-6.961-14.571-15.121s6.459-14.811 14.542-15.12l0.028-0.001h51.858c0.167-0.007 0.364-0.010 0.561-0.010 8.357 0 15.131 6.774 15.131 15.131s-6.774 15.131-15.131 15.131c-0.197 0-0.394-0.004-0.589-0.011l0.028 0.001z" />
<glyph unicode="&#xe909;" glyph-name="mobile" d="M752.87-63.541h-482.516c-32.304 0-58.492 26.188-58.492 58.492v0 906.558c0 32.304 26.188 58.492 58.492 58.492v0h482.516c32.304 0 58.492-26.188 58.492-58.492v-906.558c0-32.304-26.188-58.492-58.492-58.492v0zM270.354 930.763c-16.147 0-29.237-13.090-29.237-29.237v-906.575c0-16.147 13.090-29.237 29.237-29.237v0h482.516c0.005 0 0.011 0 0.018 0 16.147 0 29.237 13.090 29.237 29.237v0 906.558c0 16.147-13.090 29.237-29.237 29.237v0zM796.743 799.161h-570.262c-8.074 0-14.618 6.545-14.618 14.618s6.545 14.618 14.618 14.618v0h570.262c8.074 0 14.618-6.545 14.618-14.618s-6.545-14.618-14.618-14.618v0zM796.743 126.552h-570.262c-8.074 0-14.618 6.545-14.618 14.618s6.545 14.618 14.618 14.618h570.262c8.074 0 14.618-6.545 14.618-14.618s-6.545-14.618-14.618-14.618v0zM511.612-7.804c-29.779 0-53.919 24.14-53.919 53.919s24.14 53.919 53.919 53.919c29.779 0 53.919-24.14 53.919-53.919v0c0-29.779-24.14-53.919-53.919-53.919v0zM511.612 70.797c-13.651 0-24.717-11.066-24.717-24.717s11.066-24.717 24.717-24.717c13.651 0 24.717 11.066 24.717 24.717v0c0 13.651-11.066 24.717-24.717 24.717v0zM570.103 861.308h-116.983c-8.074 0-14.618 6.545-14.618 14.618s6.545 14.618 14.618 14.618h116.983c8.074 0 14.618-6.545 14.618-14.618s-6.545-14.618-14.618-14.618v0z" />
<glyph unicode="&#xe90a;" glyph-name="delete" d="M865.745 658.479h-723.782c-26.97 0.053-48.82 21.902-48.873 48.868v97.006c0.053 26.97 21.902 48.82 48.868 48.873h723.787c26.97-0.053 48.82-21.902 48.873-48.868v-97.006c-0.053-26.97-21.902-48.82-48.868-48.873h-0.005zM141.964 824.18c-10.951 0-19.828-8.877-19.828-19.828v0-97.001c0-10.951 8.877-19.828 19.828-19.828v0h723.782c10.951 0 19.828 8.877 19.828 19.828v0 97.001c0 10.951-8.877 19.828-19.828 19.828v0zM744.913-42.868h-482.025c-33.627 0.114-61.133 26.162-63.569 59.181l-0.012 0.211-43.567 655.174c-0.023 0.306-0.036 0.664-0.036 1.024 0 8.020 6.502 14.522 14.522 14.522 0.013 0 0.025 0 0.038 0h667.274c0.011 0 0.023 0 0.036 0 8.020 0 14.522-6.502 14.522-14.522 0-0.36-0.013-0.718-0.039-1.071l0.003 0.047-43.567-655.174c-2.448-33.23-29.955-59.278-63.57-59.392h-0.011zM185.716 658.106l42.636-639.628c1.348-18.032 16.285-32.158 34.532-32.209h482.030c18.282 0.055 33.236 14.231 34.53 32.19l0.006 0.112 42.636 639.628zM353.001 45.382c-20.242 0.066-36.769 15.879-37.976 35.827l-0.005 0.106-24.39 476.998c-0.029 0.584-0.046 1.267-0.046 1.955 0 22.904 18.567 41.472 41.472 41.472 22.217 0 40.353-17.469 41.422-39.421l0.004-0.096 17.687-477.091c0.021-0.472 0.033-1.026 0.033-1.583 0-21.079-17.088-38.167-38.167-38.167-0.044 0-0.089 0-0.133 0h0.007zM332.055 573.114c-0.005 0-0.011 0-0.017 0-6.838 0-12.381-5.543-12.381-12.381 0-0.229 0.006-0.457 0.019-0.683l-0.001 0.031 24.297-477.091c0.303-4.904 4.355-8.767 9.309-8.767 5.151 0 9.326 4.175 9.326 9.326 0 0.196-0.006 0.392-0.018 0.585l0.001-0.027-17.967 476.719c-0.052 6.798-5.575 12.289-12.381 12.289-0.066 0-0.131-0.001-0.196-0.002h0.010zM503.901 45.382c-20.756 0.043-37.639 16.567-38.259 37.179l-0.001 0.057-3.351 477.277c0 22.981 18.63 41.612 41.612 41.612s41.612-18.63 41.612-41.612v0l-3.351-477.091c-0.52-20.749-17.441-37.377-38.256-37.423h-0.004zM503.901 573.114c-6.952-0.053-12.568-5.701-12.568-12.66 0-0.033 0-0.066 0-0.098v0.005l3.351-476.998c0-5.141 4.168-9.309 9.309-9.309s9.309 4.168 9.309 9.309v0l3.351 476.905c0.001 0.055 0.001 0.121 0.001 0.187 0 6.992-5.668 12.66-12.66 12.66-0.033 0-0.066 0-0.1 0h0.005zM654.801 45.382c-21.109 0.053-38.208 17.151-38.26 38.255v1.494l17.78 477.091c1.073 22.047 19.209 39.517 41.425 39.517 22.904 0 41.472-18.567 41.472-41.472 0-0.688-0.017-1.371-0.050-2.051l0.004 0.096-24.297-476.812c-1.164-20.145-17.75-36.050-38.067-36.119h-0.007zM675.747 573.114c-0.002 0-0.004 0-0.006 0-6.707 0-12.168-5.333-12.375-11.99v-0.019l-17.78-477.091c-0.009-0.153-0.014-0.332-0.014-0.512 0-5.149 4.174-9.323 9.323-9.323 4.969 0 9.030 3.887 9.308 8.787l0.001 0.025 24.297 476.719c0.011 0.195 0.017 0.422 0.017 0.652 0 6.838-5.543 12.381-12.381 12.381-0.006 0-0.012 0-0.018 0h0.001zM653.777 824.18h-299.753c-8.020 0-14.522 6.502-14.522 14.522v0 52.969c0 0 0 0 0 0 0 37.704 30.539 68.276 68.231 68.329h192.331c37.737 0 68.329-30.592 68.329-68.329v0-52.689c-0.053-7.98-6.534-14.429-14.522-14.429-0.033 0-0.066 0-0.098 0h0.005zM368.733 853.225h270.615v38.447c0 21.645-17.547 39.191-39.191 39.191v0h-192.419c-21.565-0.106-39.005-17.612-39.005-39.191 0 0 0 0 0-0.001v0z" />
<glyph unicode="&#xe90b;" glyph-name="verification" d="M405.285 321.829c7.812-7.823 18.609-12.662 30.537-12.662s22.726 4.839 30.537 12.662v0l214.747 214.674c7.815 7.815 12.649 18.612 12.649 30.537 0 23.851-19.335 43.186-43.186 43.186-11.925 0-22.722-4.834-30.537-12.649l-184.174-184.174-59.099 59.099c-7.815 7.815-18.612 12.649-30.537 12.649-23.851 0-43.186-19.335-43.186-43.186 0-11.925 4.834-22.722 12.649-30.537v0zM843.776 960h-690.907c-0.584 0.030-1.269 0.046-1.958 0.046-22.028 0-40.023-17.265-41.192-39.001l-0.004-0.104v-734.866c0.303-14.566 8.656-27.112 20.778-33.398l0.214-0.101 345.381-187.319c6.425-3.501 14.072-5.559 22.199-5.559s15.774 2.058 22.447 5.682l-0.248-0.123 345.454 187.611c12.336 6.387 20.689 18.934 20.991 33.459l0.001 0.041v734.574c-1.174 21.84-19.169 39.105-41.197 39.105-0.689 0-1.373-0.017-2.053-0.050l0.096 0.004zM800.622 208.238l-302.226-164.133-302.226 164.133v673.573h604.526z" />
<glyph unicode="&#xe90c;" glyph-name="surface1" horiz-adv-x="1025" d="M1024.626 507.032v0c-1.769 16.502-10.129 30.764-22.355 40.301l-0.131 0.098-58.312 45.41 21.922 72.342c1.601 5.088 2.524 10.939 2.524 17.006 0 27.618-19.117 50.77-44.841 56.946l-0.399 0.081-73.407 17.162-9.395 74.785c-3.823 28.979-28.37 51.113-58.087 51.113-3.823 0-7.56-0.366-11.178-1.066l0.368 0.059-74.033-14.218-39.647 64.701c-10.588 17.055-29.215 28.243-50.455 28.243-9.204 0-17.917-2.101-25.686-5.849l0.354 0.154c-2.092-0.972-3.88-2.016-5.558-3.205l0.109 0.073-64.262-44.721-61.569 43.092c-9.337 6.578-20.948 10.513-33.478 10.513-21.162 0-39.702-11.224-49.992-28.044l-0.146-0.256-38.958-64.513-74.033 14.218c-3.25 0.64-6.988 1.006-10.81 1.006-29.717 0-54.264-22.134-58.055-50.816l-0.032-0.298-9.708-74.973-77.541-18.101-3.883-1.19-1.315-0.564c-21.276-9.11-35.911-29.869-35.911-54.046 0-6.149 0.947-12.077 2.702-17.647l-0.113 0.415 22.11-72.342-60.817-47.351-3.507-3.069-1.002-1.065c-9.823-10.555-15.853-24.755-15.853-40.364 0-14.612 5.284-27.99 14.045-38.328l-0.071 0.086 47.602-56.934-38.833-70.087-1.566-3.507-0.438-1.315c-1.982-5.668-3.126-12.202-3.126-19.003 0-23.418 13.572-43.667 33.279-53.31l0.35-0.155 68.208-32.006-6.263-75.161c-0.137-1.505-0.216-3.254-0.216-5.022 0-31.935 25.561-57.899 57.34-58.55l0.061-0.001 75.161-1.503 24.74-71.215c8.189-23.114 29.86-39.372 55.329-39.372 8.225 0 16.053 1.695 23.156 4.756l-0.38-0.146 69.461 29.25 54.491-58.187 2.881-2.568 1.127-0.814c9.878-7.389 22.333-11.833 35.825-11.838h0.001c0.048 0 0.106 0 0.163 0 16.765 0 31.879 7.067 42.525 18.385l0.028 0.030 51.548 54.992 69.461-29.25c6.722-2.915 14.551-4.61 22.775-4.61 25.469 0 47.14 16.258 55.202 38.962l0.127 0.41 24.74 71.215 79.733 1.566 3.758 0.438h1.378c27.484 5.536 47.893 29.487 47.893 58.204 0 1.559-0.060 3.104-0.178 4.632l0.013-0.203-6.263 75.161 68.208 32.006c20.11 9.562 33.763 29.713 33.763 53.052 0 10.414-2.718 20.192-7.483 28.666l0.152-0.294-36.516 66.267 47.664 56.934c8.63 10.169 13.878 23.444 13.878 37.945 0 2.255-0.127 4.479-0.374 6.668l0.025-0.268zM906.436 431.872c-5.207-6.139-8.373-14.152-8.373-22.904 0-6.255 1.617-12.133 4.457-17.238l-0.092 0.181 43.844-79.67-82.363-38.645c-12.129-5.841-20.351-18.037-20.351-32.153 0-1.028 0.044-2.046 0.129-3.053l-0.009 0.131 7.704-90.631-90.944-1.816c-15.108-0.339-27.859-10.061-32.68-23.553l-0.077-0.248-29.814-85.934-83.804 35.325c-4.053 1.741-8.769 2.753-13.723 2.753-10.18 0-19.361-4.276-25.846-11.13l-0.016-0.017-62.070-66.58-62.195 66.392c-6.49 6.871-15.664 11.149-25.837 11.149-0.011 0-0.021 0-0.032 0h0.002c-0.008 0-0.017 0-0.026 0-4.921 0-9.606-1.014-13.856-2.843l0.228 0.087-83.804-35.325-29.814 85.871c-4.898 13.74-17.65 23.462-32.717 23.8l-0.040 0.001-90.944 1.816 7.704 90.631c0.077 0.875 0.12 1.893 0.12 2.921 0 14.116-8.222 26.313-20.138 32.061l-0.213 0.093-82.301 38.645 43.844 79.67c2.747 4.924 4.364 10.801 4.364 17.057 0 8.752-3.166 16.765-8.415 22.955l0.043-0.051-57.748 68.897 70.901 55.243c8.53 6.554 13.974 16.759 13.974 28.235 0 3.577-0.529 7.030-1.512 10.285l0.065-0.251-26.369 87.061 88.564 20.669c14.311 3.486 25.099 15.287 27.038 29.883l0.020 0.181 10.961 90.381 89.316-17.162c1.973-0.388 4.242-0.61 6.562-0.61 12.811 0 24.040 6.771 30.304 16.93l0.088 0.153 47.038 77.729 74.597-51.986c5.648-3.959 12.663-6.326 20.231-6.326s14.583 2.367 20.345 6.402l-0.114-0.076 74.91 52.049 47.038-77.854c6.337-10.315 17.558-17.090 30.361-17.090 2.332 0 4.611 0.225 6.817 0.654l-0.224-0.036 89.065 17.224 11.337-90.255c1.958-14.777 12.746-26.578 26.814-30.014l0.244-0.050 88.564-20.669-26.369-87.061c-0.922-3.012-1.452-6.475-1.452-10.061 0-11.488 5.445-21.704 13.896-28.209l0.084-0.062 70.776-55.118zM515.601 703.201c-140.961 0-255.233-114.272-255.233-255.233s114.272-255.233 255.233-255.233c140.961 0 255.233 114.272 255.233 255.233v0c-0.178 140.89-114.343 255.055-255.216 255.233h-0.017zM515.601 252.802c-107.788 0-195.167 87.379-195.167 195.167s87.379 195.167 195.167 195.167c107.788 0 195.167-87.379 195.167-195.167 0-0.022 0-0.044 0-0.066v0.003c-0.143-107.718-87.444-194.998-195.157-195.104h-0.010zM588.946 527.2l-118.566-118.566-32.194 32.194c-5.364 5.045-12.609 8.145-20.577 8.145-16.604 0-30.064-13.46-30.064-30.064 0-7.984 3.112-15.241 8.19-20.624l-0.014 0.015 53.427-53.427c5.438-5.425 12.944-8.78 21.233-8.78s15.795 3.355 21.233 8.78l139.798 139.798c6.077 5.522 9.878 13.457 9.878 22.279 0 16.604-13.46 30.064-30.064 30.064-8.822 0-16.757-3.8-22.257-9.853l-0.022-0.025z" />
<glyph unicode="&#xe90d;" glyph-name="visibility" d="M632.698 563.133c-3.863 3.863-9.199 6.252-15.093 6.252-11.788 0-21.345-9.556-21.345-21.345 0-5.894 2.389-11.23 6.252-15.093v0c23.164-23.164 37.492-55.165 37.492-90.513 0-70.695-57.309-128.004-128.004-128.004-35.347 0-67.348 14.327-90.513 37.492v0c-3.863 3.863-9.199 6.252-15.093 6.252-11.788 0-21.345-9.556-21.345-21.345 0-5.894 2.389-11.23 6.252-15.093v0c30.884-30.884 73.549-49.986 120.676-49.986 94.254 0 170.662 76.408 170.662 170.662 0 47.127-19.102 89.792-49.986 120.676v0zM541.785 610.193c-9.372 1.842-20.149 2.896-31.171 2.896-93.437 0-169.183-75.746-169.183-169.183 0-0.502 0.002-1.003 0.007-1.504l-0.001 0.077c0.113-10.589 1.194-20.854 3.157-30.801l-0.174 1.060c1.76-10.138 10.468-17.757 20.964-17.809h0.006c0.025 0 0.055 0 0.085 0 1.293 0 2.556 0.13 3.776 0.377l-0.121-0.021c10.067 1.857 17.593 10.567 17.593 21.034 0 1.299-0.116 2.571-0.338 3.805l0.019-0.13c-1.371 6.642-2.208 14.32-2.314 22.175l-0.001 0.086c-0.007 0.505-0.011 1.1-0.011 1.697 0 69.856 56.63 126.486 126.486 126.486 8.365 0 16.541-0.812 24.452-2.362l-0.8 0.131c1.282-0.274 2.756-0.431 4.266-0.431 11.778 0 21.326 9.548 21.326 21.326 0 10.66-7.821 19.493-18.037 21.074l-0.119 0.015zM1018.969 456.192c-78.669 88.656-171.019 162.98-274.16 220.22l-5.303 2.7c-2.845 1.5-6.217 2.38-9.795 2.38-11.789 0-21.346-9.557-21.346-21.346 0-8.211 4.636-15.34 11.434-18.91l0.117-0.056c97.978-54.423 181.773-120.579 253.48-198.082l0.606-0.663c-50.844-55.073-251.014-256-462.002-256-78.303 0.732-152.021 19.646-217.36 52.712l2.81-1.29c-2.707 1.335-5.892 2.115-9.261 2.115-11.778 0-21.327-9.548-21.327-21.327 0-8.41 4.868-15.684 11.941-19.155l0.126-0.056c67.934-34.494 148.027-54.989 232.84-55.695l0.232-0.002c262.678 0 497.13 273.274 507.014 284.939 3.115 3.683 5.008 8.486 5.008 13.731 0 5.269-1.911 10.092-5.078 13.814l0.025-0.030zM652.021 716.555c-41.636 15.012-89.686 23.965-139.744 24.573l-0.277 0.003c-262.678 0-497.13-273.274-507.014-284.939-3.14-3.691-5.050-8.513-5.050-13.781 0-4.575 1.441-8.814 3.893-12.287l-0.045 0.067c54.693-72.75 119.499-134.27 193.064-183.772l2.831-1.795c3.31-2.242 7.391-3.579 11.784-3.579 7.387 0 13.891 3.779 17.685 9.51l0.049 0.079c2.229 3.312 3.557 7.391 3.557 11.78 0 7.373-3.75 13.871-9.447 17.69l-0.077 0.048c-67.047 45.627-124.491 98.896-173.061 159.576l-1.197 1.548c48.974 53.426 250.613 257.158 463.026 257.158 45.452-0.607 88.819-8.712 129.186-23.13l-2.789 0.869c2.084-0.758 4.489-1.196 6.996-1.196 9.305 0 17.2 6.035 19.986 14.404l0.043 0.149c0.716 2.040 1.13 4.393 1.13 6.842 0 9.338-6.015 17.272-14.381 20.138l-0.15 0.045zM889.767 820.202c-3.865 3.856-9.201 6.241-15.093 6.241s-11.227-2.385-15.093-6.241v0l-725.348-725.393c-3.863-3.863-6.252-9.199-6.252-15.093 0-11.788 9.556-21.345 21.345-21.345 5.894 0 11.23 2.389 15.093 6.252l725.348 725.393c3.856 3.865 6.241 9.201 6.241 15.093s-2.385 11.227-6.241 15.093v0z" />
<glyph unicode="&#xe90e;" glyph-name="phone" d="M941.821 287.842c-0.334-0.001-0.73-0.001-1.125-0.001-64.891 0-127.299 10.631-185.577 30.245l4.1-1.197c-7.651 2.554-16.46 4.027-25.613 4.027-21.36 0-40.845-8.024-55.607-21.222l0.081 0.071-115.147-86.82c-124.479 62.883-223.153 161.531-284.399 282.359l-1.668 3.628 84.34 112.026c15.005 14.978 24.288 35.685 24.288 58.56 0 9.040-1.45 17.742-4.13 25.885l0.167-0.585c-18.669 54.571-29.447 117.442-29.447 182.829 0 0.061 0 0.122 0 0.183v-0.010c-0.045 45.256-36.629 81.952-81.838 82.179h-188.066c-45.368-0.046-82.134-36.811-82.179-82.175v-0.004c0.5-519.999 421.839-941.423 941.759-942.061h0.062c0.048 0 0.104 0 0.16 0 45.431 0 82.259 36.829 82.259 82.259 0 0.056 0 0.113 0 0.169v-0.009 187.484c-0.045 45.396-36.857 82.179-82.259 82.179-0.056 0-0.113 0-0.169 0h0.009z" />
<glyph unicode="&#xe90f;" glyph-name="msg" d="M1005.99 746.165l-353.822-294.671 354.424-235.881v524.047c-0.024 2.315-0.242 4.563-0.639 6.748l0.037-0.243zM620.424 424.93l-44.634-37.165c-19.439-16.265-44.707-26.142-72.282-26.142s-52.844 9.877-72.46 26.287l0.178-0.145-44.634 37.165-386.59-257.144v-5.301c0-21.99 17.826-39.816 39.816-39.816v0h926.961c21.99 0 39.816 17.826 39.816 39.816v0 5.301zM966.957 779.294h-927.262c-0.012 0-0.027 0-0.042 0-3.327 0-6.024-2.697-6.024-6.024 0-1.929 0.907-3.646 2.317-4.749l0.013-0.010 420.382-350.088c12.602-10.548 28.984-16.954 46.863-16.954s34.261 6.406 46.978 17.047l-0.115-0.094 420.503 350.088c1.424 1.112 2.331 2.83 2.331 4.759 0 3.299-2.652 5.979-5.941 6.023h-0.004zM0.602 746.165c-0.367-1.983-0.586-4.273-0.602-6.611v-524.062l354.424 235.881z" />
<glyph unicode="&#xe910;" glyph-name="play" d="M890.402 494.763l-689.63 458.411c-5.978 4.214-13.412 6.735-21.436 6.735s-15.458-2.521-21.554-6.815l0.119 0.079c-13.043-9.815-21.389-25.265-21.389-42.665 0-0.529 0.008-1.055 0.023-1.58l-0.002 0.077v-917.367c-0.011-0.408-0.018-0.888-0.018-1.369 0-17.398 8.344-32.848 21.249-42.565l0.136-0.098c6.066-4.239 13.586-6.788 21.699-6.827h0.010c7.912 0.131 15.207 2.667 21.214 6.907l-0.119-0.080 689.493 458.684c13.369 10.321 21.896 26.351 21.896 44.373s-8.527 34.053-21.766 44.277l-0.13 0.096z" />
<glyph unicode="&#xe911;" glyph-name="quotation" d="M212.631 521.487c24.414 87.482 97.607 152.832 187.702 165.39l1.196 0.137c0.158-0.004 0.345-0.007 0.532-0.007 5.358 0 10.235 2.064 13.877 5.44l-0.013-0.012c4.202 1.521 7.454 4.773 8.942 8.872l0.033 0.103c8.494 13.094 13.544 29.105 13.544 46.296 0 32.831-18.42 61.361-45.489 75.817l-0.462 0.225c-52.164 37.768-134.927 0-176.309-34.214-104.328-86.317-210.161-235.58-205.041-377.796-7.2-34.732-11.322-74.645-11.322-115.522 0-59.509 8.736-116.978 24.996-171.194l-1.085 4.212c20.008-49.805 67.9-84.33 123.857-84.33 0.101 0 0.203 0 0.304 0h-0.016c54.212-3.614 165.527-19.817 214.136 12.589s52.164 95.352 57.585 149.323c5.421 59.392 21.564 170.948-28.792 217.69-50.417 44.815-194.379-3.735-178.176 96.979zM806.37 521.487c24.414 87.482 97.607 152.832 187.702 165.39l1.196 0.137c0.158-0.004 0.345-0.007 0.532-0.007 5.358 0 10.235 2.064 13.877 5.44l-0.013-0.012c4.202 1.521 7.454 4.773 8.942 8.872l0.033 0.103c8.494 13.094 13.544 29.105 13.544 46.296 0 32.831-18.42 61.361-45.489 75.817l-0.462 0.225c-52.164 37.768-134.927 0-176.309-34.214-104.328-86.377-210.522-235.701-205.101-377.856-7.199-34.731-11.32-74.644-11.32-115.519 0-59.51 8.736-116.98 24.995-171.198l-1.085 4.213c20.008-49.805 67.9-84.33 123.857-84.33 0.101 0 0.203 0 0.304 0h-0.016c54.212-3.614 165.527-19.817 214.136 12.589s52.164 95.352 57.585 149.323c5.421 59.392 21.564 170.948-28.792 217.69-50.357 44.875-196.126-3.674-178.116 97.039z" />
<glyph unicode="&#xe912;" glyph-name="star" d="M1021.525 573.034c-6.348 21.101-24.506 36.648-46.611 39.067l-0.245 0.022-295.644 27.994-116.841 285.061c-7.931 20.311-27.344 34.437-50.056 34.437s-42.125-14.127-49.931-34.073l-0.126-0.364-116.926-285.061-295.644-27.994c-22.341-2.464-40.488-18.001-46.755-38.7l-0.101-0.389c-1.734-5.272-2.734-11.34-2.734-17.642 0-16.847 7.146-32.024 18.573-42.666l0.035-0.032 223.44-204.834-65.888-302.813c-0.893-3.815-1.405-8.194-1.405-12.694 0-18.638 8.785-35.223 22.441-45.842l0.131-0.098c8.712-6.748 19.794-10.817 31.827-10.817 10.355 0 20.007 3.013 28.125 8.211l-0.209-0.125 255.104 159.429 254.933-159.002c7.913-5.050 17.559-8.049 27.906-8.049 12.031 0 23.114 4.054 31.959 10.87l-0.122-0.091c13.786 10.716 22.571 27.302 22.571 45.94 0 4.5-0.512 8.879-1.481 13.085l0.076-0.391-65.803 302.813 223.44 204.407c11.494 10.692 18.662 25.902 18.662 42.786 0 6.269-0.988 12.308-2.817 17.968l0.115-0.413z" />
<glyph unicode="&#xe913;" glyph-name="cancel" d="M567.999 448.073l444.204 443.622c6.509 7.098 10.498 16.599 10.498 27.031 0 22.12-17.932 40.051-40.051 40.051-10.396 0-19.867-3.961-26.986-10.456l0.031 0.028-443.767-443.767-443.622 443.767c-7.25 7.25-17.265 11.733-28.327 11.733-22.125 0-40.061-17.936-40.061-40.061 0-11.062 4.484-21.078 11.733-28.327l443.767-443.622-443.767-443.767c-6.126-6.998-9.862-16.222-9.862-26.319 0-22.12 17.932-40.051 40.051-40.051 10.097 0 19.321 3.736 26.366 9.902l-0.046-0.040 443.767 444.35 443.767-444.35c6.998-6.126 16.222-9.862 26.319-9.862 22.12 0 40.051 17.932 40.051 40.051 0 10.097-3.736 19.321-9.902 26.366l0.040-0.046z" />
<glyph unicode="&#xe914;" glyph-name="pin" d="M507.904 960c-209.704-0.233-379.642-170.153-379.904-379.828v-0.025c2.473-53.275 14.076-103.181 33.277-149.121l-1.073 2.894c14.187-31.866 28.859-58.75 45.385-84.324l-1.455 2.404 260.454-394.65c8.639-15.282 24.779-25.429 43.29-25.429s34.65 10.147 43.161 25.183l0.128 0.247 260.454 394.65c15.085 23.177 29.758 50.062 42.378 78.070l1.552 3.85c18.13 43.046 29.734 92.953 32.169 145.255l0.036 0.972c-0.262 209.681-170.171 379.591-379.827 379.853h-0.025zM814.387 451.226c-13.003-29.138-26.443-53.718-41.575-77.102l1.331 2.196-260.454-394.65c-5.12-7.782-6.758-7.782-11.93 0l-260.096 394.65c-13.723 21.157-27.097 45.723-38.611 71.307l-1.427 3.547c-15.862 37.912-26.181 81.846-28.679 127.86l-0.044 1.011c0 185.115 150.066 335.181 335.181 335.181s335.181-150.066 335.181-335.181v0c-2.627-47.030-13.012-90.935-29.901-131.451l0.973 2.632zM507.853 781.21c-111.072 0-201.114-90.042-201.114-201.114s90.042-201.114 201.114-201.114c111.072 0 201.114 90.042 201.114 201.114v0c-0.117 111.025-90.089 200.997-201.103 201.114h-0.011zM507.853 423.68c-86.386 0-156.416 70.030-156.416 156.416s70.030 156.416 156.416 156.416c86.386 0 156.416-70.030 156.416-156.416v0c-0.116-86.339-70.077-156.3-156.405-156.416h-0.011z" />
<glyph unicode="&#xe915;" glyph-name="up-arrow" d="M718.708-9.216l-454.004 454.284c-3.727 3.738-6.032 8.896-6.032 14.592s2.305 10.854 6.032 14.592v0l454.004 454.237c3.734 3.734 8.893 6.044 14.592 6.044 11.397 0 20.636-9.239 20.636-20.636 0-5.699-2.31-10.858-6.044-14.592v0l-439.389-439.761 439.436-439.529c3.734-3.734 6.044-8.893 6.044-14.592 0-11.397-9.239-20.636-20.636-20.636-5.699 0-10.858 2.31-14.592 6.044v0zM754.735 4.515c0 0.001 0 0.003 0 0.004 0 5.706-2.312 10.871-6.051 14.611l-439.994 440.087 439.994 440.041c3.436 3.68 5.545 8.637 5.545 14.087 0 11.414-9.253 20.666-20.666 20.666-5.438 0-10.386-2.101-14.076-5.535l0.013 0.012-454.563-454.703c-3.741-3.74-6.055-8.907-6.055-14.615s2.314-10.875 6.055-14.615l454.563-454.703c3.735-3.713 8.884-6.009 14.569-6.009 11.414 0 20.666 9.253 20.666 20.666 0 0.002 0 0.003 0 0.005v0z" />
<glyph unicode="&#xe916;" glyph-name="touch" horiz-adv-x="706" d="M661.568 859.136c-43.848 61.371-114.849 100.9-195.083 100.9-132.018 0-239.040-107.022-239.040-239.040 0-68.293 28.639-129.896 74.561-173.456l0.106-0.1-0.352-0.576c3.202-2.634 7.344-4.231 11.859-4.231 10.348 0 18.736 8.388 18.736 18.736 0 4.866-1.855 9.299-4.896 12.629l0.013-0.015c-38.597 36.794-62.598 88.602-62.598 146.017 0 111.341 90.259 201.6 201.6 201.6s201.6-90.259 201.6-201.6c0-67.454-33.128-127.17-84.003-163.767l-0.6-0.41c-6.723-2.945-11.334-9.54-11.334-17.212 0-10.348 8.388-18.736 18.736-18.736 5.445 0 10.347 2.323 13.771 6.031l0.012 0.013c61.357 43.849 100.876 114.843 100.876 195.066 0 51.789-16.469 99.73-44.456 138.874l0.492-0.724zM529.632 784.592l-1.168 1.040c-14.975 14.419-35.37 23.3-57.84 23.3-46.050 0-83.388-37.305-83.44-83.344v-212.965c-12.911 8.664-28.802 13.829-45.899 13.829-22.986 0-43.792-9.334-58.835-24.419l-0.002-0.002-1.040-1.168q-2.448-2.56-4.656-5.232c-1.916 2.344-3.82 4.445-5.823 6.447l-0.001 0.001-1.168 1.040c-14.919 14.391-35.251 23.258-57.654 23.258-22.925 0-43.682-9.285-58.715-24.299l0.001 0.001-1.040-1.168q-2.448-2.56-4.656-5.232c-1.913 2.321-3.816 4.408-5.819 6.395l-0.005 0.005-1.168 1.040c-14.919 14.391-35.251 23.258-57.654 23.258-22.925 0-43.682-9.285-58.715-24.299l0.001 0.001-1.040-1.168c-14.406-14.921-23.282-35.263-23.282-57.678 0-0.181 0.001-0.361 0.002-0.541v0.028-229.168c0-153.031 124.057-277.088 277.088-277.088s277.088 124.057 277.088 277.088v0 512c0 0.005 0 0.012 0 0.018 0 23.070-9.39 43.947-24.556 59.018l-0.004 0.004zM516.48 213.888c0-132.593-107.487-240.080-240.080-240.080s-240.080 107.487-240.080 240.080v0l0.112 229.264c0 0.021 0 0.045 0 0.070 0 12.287 4.834 23.445 12.704 31.676l-0.016-0.017 0.816 0.816c8.305 8.341 19.798 13.502 32.496 13.502 12.304 0 23.477-4.846 31.713-12.734l-0.017 0.016 0.816-0.816c8.334-8.298 13.494-19.777 13.504-32.462v-0.002c0-10.348 8.388-18.736 18.736-18.736s18.736 8.388 18.736 18.736v0c0 0.031 0 0.068 0 0.106 0 12.246 4.802 23.371 12.626 31.594l-0.018-0.019 0.816 0.816c8.304 8.332 19.79 13.487 32.481 13.487 12.28 0 23.433-4.827 31.665-12.688l-0.018 0.017 0.816-0.816c8.334-8.298 13.494-19.777 13.504-32.462v-0.002c0-10.348 8.388-18.736 18.736-18.736s18.736 8.388 18.736 18.736v0c0 0.035 0 0.076 0 0.118 0 12.224 4.783 23.33 12.579 31.551l-0.019-0.020 0.816 0.816c8.291 8.358 19.781 13.532 32.479 13.532 12.289 0 23.446-4.846 31.665-12.731l-0.016 0.015 0.816-0.816c8.334-8.298 13.494-19.777 13.504-32.462v-0.002c0-10.348 8.388-18.736 18.736-18.736s18.736 8.388 18.736 18.736v282.72c0.033 25.362 20.601 45.909 45.968 45.909 12.273 0 23.423-4.81 31.668-12.648l-0.020 0.018 0.816-0.816c8.334-8.298 13.494-19.777 13.504-32.462v-512.002z" />
<glyph unicode="&#xe917;" glyph-name="mark" d="M512-64c-282.77 0-512 229.23-512 512s229.23 512 512 512c282.77 0 512-229.23 512-512v0c-0.327-282.638-229.362-511.672-511.968-512h-0.032zM512 917.328c-259.203 0-469.328-210.125-469.328-469.328s210.125-469.328 469.328-469.328c259.203 0 469.328 210.125 469.328 469.328v0c-0.318 259.074-210.253 469.009-469.297 469.328h-0.031zM491.008 277.968c-5.869 0.001-11.185 2.372-15.041 6.209l-148.655 148.687c-3.843 3.843-6.22 9.152-6.22 15.016 0 11.728 9.508 21.236 21.236 21.236 5.864 0 11.173-2.377 15.016-6.22l133.616-133.616 239.744 239.76c3.843 3.843 9.152 6.22 15.016 6.22 11.728 0 21.236-9.508 21.236-21.236 0-5.864-2.377-11.173-6.22-15.016l-254.784-254.848c-3.805-3.834-9.077-6.208-14.903-6.208-0.014 0-0.029 0-0.043 0h0.002z" />
<glyph unicode="&#xe918;" glyph-name="support" d="M499.664 366.416c0.001-0.043 0.001-0.094 0.001-0.145 0-6.99-5.666-12.656-12.656-12.656-0.051 0-0.102 0-0.153 0.001h-82.568c-0.136-0.005-0.296-0.008-0.457-0.008-7.158 0-12.96 5.802-12.96 12.96 0 3.722 1.569 7.078 4.082 9.442l0.007 0.006 69.056 62.528c6.060 5.544 9.846 13.487 9.846 22.314 0 16.683-13.525 30.208-30.208 30.208-6.741 0-12.966-2.208-17.991-5.94l0.081 0.058c-5.152-3.728-9.44-10.448-16-11.6-0.598-0.097-1.286-0.153-1.988-0.153-5.651 0-10.46 3.603-12.256 8.638l-0.028 0.091c-3.2 9.312 4.8 14.88 10.72 20.304 9.757 8.93 22.809 14.402 37.139 14.402 0.151 0 0.301-0.001 0.452-0.002h-0.023c0 0 0 0 0 0 16.471 0 31.286-7.091 41.559-18.386l0.041-0.046c8.93-9.757 14.402-22.809 14.402-37.139 0-0.151-0.001-0.301-0.002-0.452v0.023c-0.002-16.471-7.092-31.285-18.386-41.559l-0.046-0.041-44.096-39.888h49.632c0 0 0.001 0 0.001 0 7.069 0 12.8-5.731 12.8-12.8 0-0.056 0-0.112-0.001-0.169v0.009zM630.976 396.928c0-0.001 0-0.002 0-0.003 0-7.069-5.731-12.8-12.8-12.8-0.090 0-0.18 0.001-0.269 0.003h-2.259v-17.728c0-7.069-5.731-12.8-12.8-12.8s-12.8 5.731-12.8 12.8v0 17.728h-73.024c-0.153-0.007-0.332-0.010-0.512-0.010-7.069 0-12.8 5.731-12.8 12.8 0 3.043 1.062 5.838 2.835 8.035l-0.019-0.024c2.976 3.696 85.344 106.352 86.304 107.312 0.846 0.893 1.761 1.702 2.744 2.424l0.056 0.040c2.005 1.338 4.47 2.135 7.122 2.135 7.078 0 12.829-5.681 12.942-12.733v-94.379h2.336c7.088-0.026 12.836-5.724 12.944-12.79v-0.010zM589.92 467.328l-46.4-57.6h46.4zM944 608.512c-36.464 205.376-226.288 351.488-432 351.488s-395.536-146.112-432-351.472c-45.409-7.203-79.746-45.954-80-92.773v-49.627c0.272-8.075 6.884-14.518 15-14.518s14.728 6.443 14.999 14.493l0.001 0.025v49.6c0.245 35.399 28.997 64.001 64.431 64.001 0.091 0 0.181 0 0.271-0.001h31.298v-311.312h-31.312c-0.081 0-0.177-0.001-0.273-0.001-35.43 0-64.179 28.604-64.415 63.978v57.622c-0.272 8.075-6.884 14.518-15 14.518s-14.728-6.443-14.999-14.493l-0.001-0.025v-57.6c0.218-51.97 42.398-94.016 94.399-94.016 0.102 0 0.203 0 0.305 0h32.896c13.904-51.936 93.536-41.712 93.536 12.16v346.96c0 53.776-79.6 64.176-93.536 12.16h-16.912c36.832 188.144 212.288 320.32 401.312 320.32s364.48-132.16 401.312-320.336h-16.912c-13.904 51.936-93.552 41.712-93.552-12.16v-346.944c0-53.776 79.616-64.192 93.552-12.16h16.72c-26.912-142.544-157.216-235.472-298.8-240-6.629 18.845-24.276 32.112-45.021 32.112-0.007 0-0.013 0-0.020 0h-114.543c-26.116 0-47.288-21.172-47.288-47.288s21.172-47.288 47.288-47.288h114.528c20.885 0.009 38.626 13.464 45.036 32.177l0.1 0.335c158.64 4.672 302.4 111.248 329.36 271.056 45.549 7.103 80.024 45.949 80.24 92.889v183.271c-0.229 46.866-34.575 85.642-79.463 92.778l-0.537 0.070zM156 597.52c0 9.72 7.88 17.6 17.6 17.6s17.6-7.88 17.6-17.6v0-346.96c0-9.72-7.88-17.6-17.6-17.6s-17.6 7.88-17.6 17.6v0zM569.264-34h-114.528c-9.323 0.293-16.77 7.921-16.77 17.288s7.447 16.995 16.743 17.287l0.027 0.001h114.528c9.323-0.293 16.77-7.921 16.77-17.288s-7.447-16.995-16.743-17.287l-0.027-0.001zM868 250.56c0-9.72-7.88-17.6-17.6-17.6s-17.6 7.88-17.6 17.6v0 346.96c0 9.72 7.88 17.6 17.6 17.6s17.6-7.88 17.6-17.6v0zM994 332.4c-0.245-35.399-28.997-64.001-64.431-64.001-0.096 0-0.192 0-0.288 0.001h-31.281v311.264h31.296c0.081 0 0.177 0.001 0.273 0.001 35.433 0 64.186-28.602 64.43-63.977v-0.023zM586.704 209.456l86.88-38.272c1.673-0.723 3.62-1.144 5.666-1.144 7.98 0 14.466 6.399 14.606 14.347v96.685c35.26 40.877 56.735 94.508 56.735 153.155 0 51.5-16.56 99.133-44.646 137.863l0.471-0.682c-2.654 3.66-6.916 6.013-11.728 6.013-7.977 0-14.445-6.467-14.445-14.445 0-3.166 1.018-6.094 2.745-8.474l-0.029 0.042c24.218-33.372 38.741-75.149 38.741-120.318 0-53.18-20.131-101.657-53.188-138.229l0.159 0.179c-2.286-2.532-3.687-5.902-3.696-9.598v-80.002l-71.76 31.616c-1.713 0.777-3.715 1.23-5.823 1.23-1.727 0-3.383-0.304-4.918-0.862l0.1 0.032c-20.658-7.561-44.51-11.933-69.382-11.933-114.69 0-207.664 92.974-207.664 207.664s92.974 207.664 207.664 207.664c44.375 0 85.499-13.918 119.245-37.628l-0.662 0.441c2.293-1.601 5.139-2.558 8.208-2.558 7.978 0 14.446 6.468 14.446 14.446 0 4.909-2.449 9.246-6.191 11.857l-0.047 0.031c-37.792 26.671-84.804 42.629-135.543 42.629-130.781 0-236.8-106.019-236.8-236.8s106.019-236.8 236.8-236.8c26.488 0 51.959 4.349 75.74 12.372l-1.669-0.489z" />
<glyph unicode="&#xe919;" glyph-name="shopping" d="M326.656 155.904c-59.052 0-106.923-47.871-106.923-106.923s47.871-106.923 106.923-106.923c59.052 0 106.923 47.871 106.923 106.923v0c0 59.052-47.871 106.923-106.923 106.923v0zM326.656-10.496c-32.801 0-59.392 26.591-59.392 59.392s26.591 59.392 59.392 59.392c32.801 0 59.392-26.591 59.392-59.392v0c-0.049-32.765-26.621-59.307-59.392-59.307v0zM778.027 155.904c-59.052 0-106.923-47.871-106.923-106.923s47.871-106.923 106.923-106.923c59.052 0 106.923 47.871 106.923 106.923v0c0 59.052-47.871 106.923-106.923 106.923v0zM778.027-10.496c-32.801 0-59.392 26.591-59.392 59.392s26.591 59.392 59.392 59.392c32.801 0 59.392-26.591 59.392-59.392v0c-0.049-32.765-26.621-59.307-59.392-59.307v0zM1019.136 779.477c-4.811 5.228-11.429 8.727-18.858 9.504l-0.129 0.011-773.291 10.709-21.333 65.323c-15.102 42.875-55.045 73.147-102.127 73.642h-79.633c-13.125 0-23.765-10.64-23.765-23.765s10.64-23.765 23.765-23.765h79.573c26.323-0.607 48.528-17.587 56.869-41.125l0.134-0.432 150.869-454.955-11.861-27.307c-4.876-12.219-7.703-26.381-7.703-41.203 0-23.104 6.87-44.603 18.678-62.566l-0.266 0.431c19.426-29.336 51.854-48.712 88.874-49.873l0.171-0.004h462.080c13.125 0 23.765 10.64 23.765 23.765s-10.64 23.765-23.765 23.765v0h-462.080c-20.991 0.546-39.265 11.687-49.73 28.252l-0.147 0.249c-6.213 9.816-9.901 21.765-9.901 34.576 0 8.049 1.456 15.758 4.118 22.878l-0.148-0.451 9.515 21.333 500.096 52.267c55.391 6.269 99.906 46.376 112.67 98.904l0.183 0.893 57.003 238.933c0.77 2.051 1.215 4.422 1.215 6.897 0 5.019-1.832 9.61-4.864 13.141l0.023-0.027zM919.381 531.243c-7.843-34.366-36.815-60.095-72.247-62.957l-0.286-0.019-494.080-51.072-110.464 334.933 728.149-10.709z" />
<glyph unicode="&#xe91a;" glyph-name="searching" d="M128.768 831.232c79.561 79.727 189.562 129.050 311.083 129.050 242.711 0 439.467-196.756 439.467-439.467 0-0.099 0-0.198 0-0.298v0.016c0.001-0.361 0.002-0.789 0.002-1.217 0-110.439-41.024-211.296-108.665-288.164l0.418 0.484 244.139-244.437c5.46-5.46 8.837-13.002 8.837-21.333 0-16.662-13.508-30.17-30.17-30.17-8.331 0-15.874 3.377-21.333 8.837l-244.181 244.181c-76.809-67.292-178.081-108.34-288.939-108.34-242.711 0-439.467 196.756-439.467 439.467 0 0.243 0 0.486 0.001 0.73v-0.038c-0.001 0.288-0.001 0.629-0.001 0.97 0 121.051 49.244 230.601 128.792 309.709l0.020 0.020zM171.435 251.947c68.642-68.57 163.431-110.976 268.125-110.976 209.532 0 379.392 169.86 379.392 379.392s-169.86 379.392-379.392 379.392c-104.694 0-199.484-42.406-268.129-110.979l0.003 0.003c-68.716-68.763-111.215-163.733-111.215-268.629 0-104.79 42.413-199.674 111.009-268.423l-0.007 0.007z" />
<glyph unicode="&#xe91b;" glyph-name="phone-thin" horiz-adv-x="1019" d="M858.091 349.709c-19.203 21.388-46.737 34.964-77.451 35.587l-0.11 0.002c-31.019-0.738-58.768-14.146-78.38-35.227l-0.062-0.068-72.498-72.278c-5.944 3.229-11.961 6.164-17.684 9.172-8.292 4.109-16.070 7.998-22.674 12.181-73.169 47.901-135.551 104.868-187.723 170.332l-1.227 1.594c-23.528 28.354-44.189 60.473-60.725 94.947l-1.207 2.793c18.785 17.171 36.249 35.075 53.2 52.319 6.457 6.457 12.841 13.061 19.299 19.519 22.189 19.394 36.128 47.749 36.128 79.359s-13.939 59.965-36.005 79.254l-0.123 0.105-62.592 62.592c-7.338 7.338-14.676 14.676-21.353 22.014-13.795 14.235-28.251 28.911-43.147 42.633-19.402 20.378-46.565 33.214-76.729 33.753l-0.099 0.001c-30.611-0.647-58.114-13.439-77.982-33.735l-0.019-0.020-0.44-0.44-77.781-78.882c-28.045-27.513-46.463-64.753-49.786-106.249l-0.038-0.59c-0.268-5.49-0.421-11.923-0.421-18.392 0-54.746 10.941-106.938 30.754-154.506l-0.982 2.66c43.842-112.576 103.115-209.531 176.474-293.913l-1.026 1.206c97.594-116.846 217.341-211.63 353.231-278.661l6.324-2.82c58.573-30.886 126.989-52.090 199.496-59.462l2.369-0.195c4.843 0 9.833-0.44 14.676-0.44 1.151-0.028 2.508-0.043 3.867-0.043 50.785 0 96.456 21.898 128.085 56.767l0.129 0.145c0 0.44 0.66 0.66 0.954 1.174 12.929 15.1 26.041 28.816 39.859 41.787l0.279 0.259c9.833 9.392 19.959 19.299 29.792 29.351 20.777 20.21 33.893 48.202 34.632 79.259l0.003 0.137c-0.621 31.111-14.055 58.967-35.225 78.597l-0.070 0.065zM940.201 108.146s0 0 0 0c-8.952-9.613-18.125-18.345-27.957-27.957-15.43-14.487-29.808-29.446-43.391-45.112l-0.636-0.75c-20.332-22.606-49.678-36.758-82.331-36.758-1.368 0-2.73 0.025-4.085 0.074l0.196-0.006c-3.449 0-7.338 0-10.567 0-66.421 7-127.022 26.043-181.599 54.945l2.702-1.305c-134.085 65.957-246.986 155.396-337.694 264.011l-1.316 1.62c-68.026 78.169-123.815 169.255-162.983 268.707l-2.192 6.317c-16.471 37.766-26.054 81.768-26.054 128.008 0 5.485 0.135 10.938 0.401 16.357l-0.030-0.763c1.944 26.843 13.676 50.625 31.603 68.073l0.024 0.023 78.515 78.222c8.84 9.361 21.065 15.443 34.707 16.283l0.148 0.007c13.318-0.824 25.088-6.84 33.424-16.029l0.037-0.041 0.66-0.66c14.015-13.061 27.297-26.636 41.312-41.092 7.338-7.338 14.676-14.676 22.014-22.014l62.592-62.592c11-8.101 18.057-21.003 18.057-35.552s-7.057-27.451-17.936-35.467l-0.121-0.085c-6.677-6.677-13.061-13.282-19.739-19.739-19.299-19.739-37.643-38.084-57.602-55.988-0.44-0.44-0.954-0.66-1.174-1.174-9.436-8.596-15.334-20.934-15.334-34.65 0-6.287 1.239-12.284 3.487-17.761l-0.113 0.312 0.66-2.055c20.171-46.395 44.969-86.391 74.639-122.204l-0.673 0.836c57.476-72.39 124.744-133.823 200.484-183.38l3.216-1.974c7.614-4.774 16.869-9.881 26.394-14.52l1.857-0.816c8.292-4.109 16.070-7.998 22.674-12.181 0.954-0.44 1.834-1.174 2.788-1.614 6.573-3.53 14.368-5.638 22.647-5.723h0.027c13.808 0.364 26.142 6.382 34.823 15.815l0.031 0.035 78.368 78.515c8.657 9.667 20.808 16.052 34.45 17.159l0.184 0.012c13.306-0.848 24.992-7.143 32.961-16.657l0.060-0.073 126.798-126.798c10.983-8.365 18-21.45 18-36.173 0-14.43-6.74-27.287-17.244-35.592l-0.095-0.073z" />
</font>
</defs>
</svg>
