<svg xmlns="http://www.w3.org/2000/svg" width="160.774" height="43.734" viewBox="0 0 160.774 43.734">
  <g id="vala_logo_color_variation-05" data-name="vala logo color variation-05" transform="translate(-229.24 -291.88)">
    <path id="Path_42" data-name="Path 42" d="M267.665,335.614H251.639l-22.4-43.734H244.3l15.352,29.978,10.768-21.023,2.482-.048-13.25,25.872-16.692-32.591H232.821l20.156,39.358h13.347l21.124-41.546h15.094l-1.124,2.188H288.789Z" transform="translate(0)" fill="#212121"/>
    <path id="Path_43" data-name="Path 43" d="M531.865,367.111,530.74,369.3H511.974l-15.352-29.978L486.335,359.4H483.88l12.742-24.881,16.692,32.591Z" transform="translate(-201.161 -33.685)" fill="#212121"/>
    <path id="Path_44" data-name="Path 44" d="M716.158,335.614H701.1l-15.352-29.978-10.285,20.08H673l12.744-24.881,16.69,32.591h10.14l-20.158-39.358H679.547l-16.264,31.648H642.09V292.974h2.188v30.667l17.635-.046,16.3-31.715h15.548Z" transform="translate(-326.143)" fill="#212121"/>
    <line id="Line_11" data-name="Line 11" x1="1.126" y2="2.188" transform="translate(329.579 333.426)" fill="#21209c"/>
  </g>
</svg>
