<svg xmlns="http://www.w3.org/2000/svg" width="117.637" height="32" viewBox="0 0 117.637 32">
  <g id="vala_logo_color_variation-05" data-name="vala logo color variation-05" transform="translate(-229.24 -291.88)">
    <path id="Path_63" data-name="Path 63" d="M257.355,323.88H245.629l-16.389-32h11.018l11.233,21.935,7.879-15.382,1.816-.035-9.695,18.93-12.214-23.846H231.86l14.748,28.8h9.766l15.456-30.4h11.044l-.822,1.6h-9.24Z" transform="translate(0)" fill="#fff"/>
    <path id="Path_64" data-name="Path 64" d="M518.99,358.366l-.824,1.6h-13.73L493.2,338.033l-7.527,14.692h-1.8L493.2,334.52l12.214,23.846Z" transform="translate(-215.51 -36.088)" fill="#fff"/>
    <path id="Path_65" data-name="Path 65" d="M696.284,323.88H685.266l-11.233-21.935-7.525,14.692h-1.8l9.325-18.205,12.212,23.846h7.419l-14.749-28.8H669.5l-11.9,23.156H642.09V292.681h1.6v22.439l12.9-.034,11.925-23.206H679.9Z" transform="translate(-349.408)" fill="#fff"/>
    <line id="Line_22" data-name="Line 22" x1="0.824" y2="1.601" transform="translate(302.657 322.279)" fill="#21209c"/>
  </g>
</svg>
